# xmcd
#
# Track frame offsets:
#        150
#        22760
#        49622
#        72175
#        95347
#        120872
#        145580
#        169655
#        201007
#        230177
#        255000
#        282362
#        312085
#
# Disc length: 4485 seconds
#
# Revision: 0
# Processed by: cddbd v1.5.1PL0 Copyright (c) Steve Scherf et al.
# Submitted via: ExactAudioCopy v0.95a5
#
DISCID=9e11830d
DTITLE=Various Artist - SUPER EUROBEAT VOL.62
DYEAR=1995
DGENRE=
TTITLE0=DANCING IN THE DARK (EXTENDED MIX) - VANESSA
TTITLE1=PEOPLE OF THE NIGHT (EXTENDED MIX) - BLACK POWER
TTITLE2=NO MORE CHANCES (EXTENDED MIX) - FRANKIE BEAT
TTITLE3=MISTERY TO LOVE (EXTENDED MIX) - MAGGIE MAY
TTITLE4=IMAGINATION (EXTENDED MIX) - KAREN
TTITLE5=ROCK'N ROLL (EXTENDED MIX) - MARIE BELLE
TTITLE6=LOVE MACHINE (EXTENDED MIX) - ROBERT PATTON
TTITLE7=HOT DESIRE (EXTENDED MIX) - KING KOBRA
TTITLE8=KEEP LOVE COMING (EXTENDED MIX) - VERONICA SALES
TTITLE9=MUSIC IS THE FREEDOM FOR THE NATIONS (EXTENDED MIX) - FRANK TO
TTITLE9=RPEDO
TTITLE10=BAD IS BAD (EXTENDED MIX) - GO GO GIRLS
TTITLE11=BOMBER (EXTENDED MIX) - EDO
TTITLE12=LOVE GUN (EXTENDED MIX) - DERRECK SIMONS
EXTD=
EXTT0=
EXTT1=
EXTT2=
EXTT3=
EXTT4=
EXTT5=
EXTT6=
EXTT7=
EXTT8=
EXTT9=
EXTT10=
EXTT11=
EXTT12=
PLAYORDER=
